<?xml version="1.0" encoding="UTF-8" standalone="no"?>
<!-- Created with Inkscape (http://www.inkscape.org/) -->

<svg
   xmlns:dc="http://purl.org/dc/elements/1.1/"
   xmlns:cc="http://creativecommons.org/ns#"
   xmlns:rdf="http://www.w3.org/1999/02/22-rdf-syntax-ns#"
   xmlns:svg="http://www.w3.org/2000/svg"
   xmlns="http://www.w3.org/2000/svg"
   xmlns:sodipodi="http://sodipodi.sourceforge.net/DTD/sodipodi-0.dtd"
   xmlns:inkscape="http://www.inkscape.org/namespaces/inkscape"
   width="32px"
   height="32px"
   id="svg2985"
   version="1.1"
   inkscape:version="0.48.4 r9939"
   sodipodi:docname="ico_math.svg"
   inkscape:export-filename="/media/X/bitcoin.org/current/img/ico_math.png"
   inkscape:export-xdpi="90"
   inkscape:export-ydpi="90">
  <defs
     id="defs2987" />
  <sodipodi:namedview
     id="base"
     pagecolor="#ffffff"
     bordercolor="#666666"
     borderopacity="1.0"
     inkscape:pageopacity="0.0"
     inkscape:pageshadow="2"
     inkscape:zoom="3.9590209"
     inkscape:cx="-72.310678"
     inkscape:cy="58.113437"
     inkscape:current-layer="layer1"
     showgrid="true"
     inkscape:grid-bbox="true"
     inkscape:document-units="px"
     inkscape:window-width="1680"
     inkscape:window-height="1026"
     inkscape:window-x="0"
     inkscape:window-y="24"
     inkscape:window-maximized="1" />
  <metadata
     id="metadata2990">
    <rdf:RDF>
      <cc:Work
         rdf:about="">
        <dc:format>image/svg+xml</dc:format>
        <dc:type
           rdf:resource="http://purl.org/dc/dcmitype/StillImage" />
        <dc:title></dc:title>
      </cc:Work>
    </rdf:RDF>
  </metadata>
  <g
     id="layer1"
     inkscape:label="Layer 1"
     inkscape:groupmode="layer">
    <g
       transform="matrix(-0.99986587,0,0,1.0412532,0.18074248,-0.65821627)"
       style="font-size:53.75815582px;font-style:normal;font-variant:normal;font-weight:normal;font-stretch:normal;line-height:125%;letter-spacing:0px;word-spacing:0px;fill:#000000;fill-opacity:1;stroke:#000000;stroke-width:0.2;stroke-miterlimit:4;stroke-opacity:1;stroke-dasharray:none;font-family:Arial;-inkscape-font-specification:Arial"
       id="text3808">
      <path
         d="m -17.053908,13.435601 c 1.837417,-2.309897 3.272366,-3.8323429 4.304852,-4.5673428 1.399928,-1.0149383 2.8786261,-1.5224204 4.4360979,-1.5224478 1.8374083,2.74e-5 3.5523478,0.6650039 5.1448235,1.9949316 1.6099112,1.329978 2.41488278,3.473653 2.41491716,6.431029 -3.438e-5,2.064946 -0.29752386,3.692389 -0.89246936,4.882333 -0.5950125,1.172473 -1.5224798,2.117439 -2.7824046,2.834903 -1.2599862,0.717486 -2.5549405,1.076223 -3.8848667,1.076213 -1.5574718,10e-6 -3.0361699,-0.498723 -4.4360979,-1.496199 -1.032486,-0.752462 -2.467435,-2.283658 -4.304852,-4.593592 -2.379934,2.99241 -4.908595,4.488607 -7.58599,4.488596 -1.767448,1.1e-5 -3.289894,-0.664965 -4.567343,-1.994932 -1.259962,-1.347439 -1.88994,-3.01863 -1.889935,-5.013578 -5e-6,-1.977411 0.629973,-3.639853 1.889935,-4.987329 1.277449,-1.3474285 2.799895,-2.0211547 4.567343,-2.0211805 2.677395,2.58e-5 5.206056,1.4962225 7.58599,4.4885955 m 1.811188,2.493665 c 1.522426,2.362435 2.913627,3.981128 4.173606,4.856083 0.804948,0.577494 1.7061661,0.866234 2.7036577,0.866221 1.3299263,1.3e-5 2.441137,-0.48997 3.3336356,-1.46995 0.9099378,-0.979951 1.3649217,-2.362402 1.3649532,-4.147358 -3.15e-5,-1.854915 -0.4637651,-3.272365 -1.3912023,-4.252354 -0.9099979,-0.979942 -2.0474578,-1.469925 -3.4123829,-1.469949 -0.8574964,2.4e-5 -1.6624683,0.245015 -2.4149173,0.734974 -1.014988,0.6825 -2.467437,2.309943 -4.35735,4.882333 m -3.622376,0.02625 c -1.399967,-1.749919 -2.519927,-2.86988 -3.359885,-3.359885 -0.839983,-0.50746 -1.644955,-0.761201 -2.414917,-0.761224 -1.014975,2.3e-5 -1.863695,0.358761 -2.546163,1.076213 -0.664984,0.717497 -0.997472,1.706212 -0.997465,2.966149 -7e-6,1.242475 0.34998,2.23994 1.049964,2.992397 0.699967,0.73499 1.548687,1.102477 2.546162,1.102462 1.767427,1.5e-5 3.67486,-1.338688 5.722304,-4.016112"
         style="stroke:#000000;stroke-width:0.2;stroke-miterlimit:4;stroke-opacity:1;stroke-dasharray:none"
         id="path3904"
         inkscape:connector-curvature="0" />
    </g>
  </g>
</svg>
